<?xml version="1.0" encoding="UTF-8"?>
<svg width="120px" height="120px" viewBox="0 0 120 120" version="1.1" xmlns="http://www.w3.org/2000/svg" xmlns:xlink="http://www.w3.org/1999/xlink">
    <!-- Generator: Sketch 41.1 (35376) - http://www.bohemiancoding.com/sketch -->
    <title>Geeku</title>
    <desc>Created with Sketch.</desc>
    <defs>
        <linearGradient x1="100%" y1="100%" x2="0%" y2="0%" id="linearGradient-1">
            <stop stop-color="#4FF3FF" offset="0%"></stop>
            <stop stop-color="#0A58B3" offset="100%"></stop>
        </linearGradient>
    </defs>
    <g id="Page-1" stroke="none" stroke-width="1" fill="none" fill-rule="evenodd">
        <g id="Geeku" fill="url(#linearGradient-1)">
            <path d="M77.5684081,108.980951 L69.4224271,108.980951 L87.3724989,81.3402643 L87.3724989,93.291126 L77.5684081,108.980951 Z M80.4642417,108.980951 L87.3724989,108.980951 L87.3724989,97.9254284 L80.4642417,108.980951 Z M66.4942141,108.980951 L59.5992027,108.980951 L69.1885706,94.2146193 L69.1885706,104.832006 L66.4942141,108.980951 Z M101.920557,54.4291661 L95.025546,54.4291661 L83.2167649,72.6130944 L87.3724989,72.6130944 L87.3724989,76.8312116 L69.1885706,104.832006 L69.1885706,94.2146193 L83.2167649,72.6130944 L90.1117763,72.6130944 L101.920557,54.4291661 Z M104.84877,54.4291661 L108.351842,54.4291661 L95.8583321,72.6130944 L93.0399894,72.6130944 L104.84877,54.4291661 Z M56.7214719,108.903215 C54.1739095,108.759796 51.6789073,108.419719 49.2514027,107.897922 L60.3568563,90.7970227 L68.4797707,90.7970227 L59.4904755,104.639323 L59.4904755,92.1311321 L59.4904755,92.1311321 L59.4904755,104.639323 L56.7214719,108.903215 Z M92.097333,54.4291661 L83.9744185,54.4291661 L69.1885706,77.1973753 L69.1885706,89.7055666 L80.2885519,72.6130944 L72.1656374,72.6130944 L72.1656374,72.6130944 L80.2885519,72.6130944 L92.097333,54.4291661 Z M46.7228493,107.2825 C44.7895414,106.756217 42.9042967,106.113317 41.0751386,105.361825 L51.2668288,89.6679984 C53.259491,90.2284905 55.3353274,90.5903466 57.4716182,90.7308471 L46.7228493,107.2825 Z M81.0462055,54.4291661 L74.1511941,54.4291661 L62.342413,72.6130944 L69.2374244,72.6130944 L69.2374244,72.6130944 L69.1885706,72.6130944 L69.1885706,72.6883226 L69.2374244,72.6130944 Z M38.7992176,104.357383 C22.3680239,96.5934611 11,79.8695404 11,60.4904755 C11,33.7099254 32.7099254,12 59.4904755,12 L59.4904755,30.1839283 C42.7526317,30.1839283 29.1839283,43.7526317 29.1839283,60.4904755 C29.1839283,73.4849035 37.3620517,84.5692284 48.8521197,88.8772716 L38.7992176,104.357383 Z M71.222981,54.4291661 L59.4904755,54.4291661 L47.4984299,72.6130944 L59.4141999,72.6130944 L71.222981,54.4291661 Z M59.4904755,12 L95.8583321,12 L84.1675704,30.1839283 L59.4904755,30.1839283 L59.4904755,12 Z" id="Combined-Shape"></path>
        </g>
    </g>
</svg>