<?xml version="1.0" encoding="UTF-8"?>
<svg width="120px" height="120px" viewBox="0 0 120 120" version="1.1" xmlns="http://www.w3.org/2000/svg" xmlns:xlink="http://www.w3.org/1999/xlink">
    <!-- Generator: Sketch 41.1 (35376) - http://www.bohemiancoding.com/sketch -->
    <title>Geeku</title>
    <desc>Created with Sketch.</desc>
    <defs>
        <linearGradient x1="100%" y1="100%" x2="0%" y2="0%" id="linearGradient-1">
            <stop stop-color="#FFDE3A" offset="0%"></stop>
            <stop stop-color="#FFA64B" offset="100%"></stop>
        </linearGradient>
        <linearGradient x1="100%" y1="100%" x2="0%" y2="0%" id="linearGradient-2">
            <stop stop-color="#4FF3FF" offset="0%"></stop>
            <stop stop-color="#0A58B3" offset="100%"></stop>
        </linearGradient>
    </defs>
    <g id="Page-1" stroke="none" stroke-width="1" fill="none" fill-rule="evenodd">
        <g id="Geeku">
            <path d="M58.125,16.485687 L58.125,10.424482 C28.7848727,10.424482 5,33.4908802 5,61.9447244 C5,80.4761789 15.0887636,96.7224553 30.2303195,105.799705 L37.5049594,95.0146078 C25.9817091,88.2425461 18.28125,75.9657402 18.28125,61.9447244 C18.28125,45.7944564 28.4981029,31.9583795 43.0056756,26.183615 L41.25,26.183615 L41.25,16.485687 L58.125,16.485687 Z M89.4981888,16.485687 L93.9118807,10.424482 L58.125,10.424482 L58.125,16.485687 L89.4981888,16.485687 Z M84.6875,103.411158 L84.6875,93.5278482 L71.40625,113.218111 L71.40625,113.464967 L77.9061202,113.464967 L84.6875,103.411158 Z M84.6875,107.881887 L84.6875,113.464967 L80.9216651,113.464967 L84.6875,107.881887 Z M102.975041,61.9447244 L94.0832305,61.9447244 L85.3955199,74.8247851 L94.2873305,74.8247851 L102.975041,61.9447244 Z M105.990586,61.9447244 L111.25,61.9447244 L102.672513,74.8247851 L97.3028754,74.8247851 L105.990586,61.9447244 Z M84.6875,89.0571191 L84.6875,75.8744677 L71.40625,95.5647306 L71.40625,108.747382 L84.6875,89.0571191 Z M71.40625,108.747382 L71.40625,100.584906 L68.0200987,100.584906 L59.3323882,113.464967 L68.2241988,113.464967 L71.40625,108.747382 Z M71.40625,113.218111 L71.40625,113.464967 L71.2397437,113.464967 L71.40625,113.218111 Z M56.3361737,113.436309 C53.9758388,113.360574 51.6544834,113.135518 49.3818296,112.770569 L57.6033502,100.581663 C57.7769684,100.583823 57.9508537,100.584906 58.125,100.584906 L58.125,110.784264 L58.125,110.784264 L58.125,100.584906 L65.0045539,100.584906 L58.125,110.784264 Z M91.0676856,61.9447244 L83.6642944,61.9447244 L74.9765838,74.8247851 L82.379975,74.8247851 L91.0676856,61.9447244 Z M82.379975,74.8247851 L74.9765838,74.8247851 L71.40625,80.1180226 L71.40625,91.0940015 L82.379975,74.8247851 Z M46.7030603,112.271278 C44.5718443,111.818441 42.4885218,111.241524 40.4615508,110.54873 L48.0266383,99.3330144 C50.1794056,99.8783594 52.4031275,100.253466 54.6815947,100.442615 L46.7030603,112.271278 Z M80.6487495,61.9447244 L73.2453583,61.9447244 L64.5576478,74.8247851 L71.961039,74.8247851 L80.6487495,61.9447244 Z M71.961039,74.8247851 L71.40625,74.8247851 L71.40625,75.6472935 L71.961039,74.8247851 Z M38.0466266,109.658261 C36.1080171,108.890223 34.2266654,108.014296 32.4105058,107.038175 L39.7084886,96.2184706 C41.5590071,97.1555708 43.4948757,97.9558531 45.5018233,98.6054775 L38.0466266,109.658261 Z M70.2298135,61.9447244 L62.8264223,61.9447244 L54.1387117,74.8247851 L61.5421029,74.8247851 L70.2298135,61.9447244 Z M59.8108774,61.9447244 L53.9941097,61.9447244 L45.0425586,74.8247851 L51.1231668,74.8247851 L59.8108774,61.9447244 Z" id="Combined-Shape" fill="url(#linearGradient-1)"></path>
            <path d="M88.4375,100.986676 L88.4375,91.1033662 L75.15625,110.793629 L75.15625,111.040485 L81.6561202,111.040485 L88.4375,100.986676 Z M88.4375,105.457405 L88.4375,111.040485 L84.6716651,111.040485 L88.4375,105.457405 Z M106.725041,59.5202425 L97.8332305,59.5202425 L89.1455199,72.4003031 L98.0373305,72.4003031 L106.725041,59.5202425 Z M109.740586,59.5202425 L115,59.5202425 L106.422513,72.4003031 L101.052875,72.4003031 L109.740586,59.5202425 Z M88.4375,86.6326371 L88.4375,73.4499857 L75.15625,93.1402486 L75.15625,106.3229 L88.4375,86.6326371 Z M75.15625,106.3229 L75.15625,98.1604243 L71.7700987,98.1604243 L63.0823882,111.040485 L71.9741988,111.040485 L75.15625,106.3229 Z M75.15625,110.793629 L75.15625,111.040485 L74.9897437,111.040485 L75.15625,110.793629 Z M60.0861737,111.011827 C57.7258388,110.936092 55.4044834,110.711036 53.1318296,110.346087 L61.3533502,98.1571811 C61.5269684,98.1593408 61.7008537,98.1604243 61.875,98.1604243 L61.875,108.359782 L61.875,108.359782 L61.875,98.1604243 L68.7545539,98.1604243 L61.875,108.359782 Z M94.8176856,59.5202425 L87.4142944,59.5202425 L78.7265838,72.4003031 L86.129975,72.4003031 L94.8176856,59.5202425 Z M86.129975,72.4003031 L78.7265838,72.4003031 L75.15625,77.6935406 L75.15625,88.6695195 L86.129975,72.4003031 Z M50.4530603,109.846796 C48.3218443,109.393959 46.2385218,108.817042 44.2115508,108.124248 L51.7766383,96.9085324 C53.9294056,97.4538774 56.1531275,97.8289841 58.4315947,98.0181327 L50.4530603,109.846796 Z M84.3987495,59.5202425 L76.9953583,59.5202425 L68.3076478,72.4003031 L75.711039,72.4003031 L84.3987495,59.5202425 Z M75.711039,72.4003031 L75.15625,72.4003031 L75.15625,73.2228115 L75.711039,72.4003031 Z M41.7966266,107.233779 C39.8580171,106.465741 37.9766654,105.589814 36.1605058,104.613693 L43.4584886,93.7939886 C45.3090071,94.7310888 47.2448757,95.5313711 49.2518233,96.1809955 L41.7966266,107.233779 Z M73.9798135,59.5202425 L66.5764223,59.5202425 L57.8887117,72.4003031 L65.2921029,72.4003031 L73.9798135,59.5202425 Z M33.9803195,103.375223 C18.8387636,94.2979733 8.75,78.0516969 8.75,59.5202425 C8.75,31.0663982 32.5348727,8 61.875,8 L61.875,20.8800606 C39.8699045,20.8800606 22.03125,38.1798593 22.03125,59.5202425 C22.03125,73.5412582 29.7317091,85.8180641 41.2549594,92.5901258 L33.9803195,103.375223 Z M63.5608774,59.5202425 L57.7441097,59.5202425 L48.7925586,72.4003031 L54.8731668,72.4003031 L63.5608774,59.5202425 Z M61.875,8 L97.6618807,8 L88.2827853,20.8800606 L61.875,20.8800606 L61.875,8 Z" id="Combined-Shape" fill="url(#linearGradient-2)"></path>
        </g>
    </g>
</svg>