<?xml version="1.0" encoding="UTF-8"?>
<svg width="41px" height="40px" viewBox="0 0 41 40" version="1.1" xmlns="http://www.w3.org/2000/svg" xmlns:xlink="http://www.w3.org/1999/xlink">
    <!-- Generator: Sketch 41.1 (35376) - http://www.bohemiancoding.com/sketch -->
    <title>Artboard</title>
    <desc>Created with Sketch.</desc>
    <defs></defs>
    <g id="Page-1" stroke="none" stroke-width="1" fill="none" fill-rule="evenodd">
        <polygon id="Triangle" fill="#96AFBD" transform="translate(27.243474, 10.866357) rotate(35.000000) translate(-27.243474, -10.866357) " points="32.278074 -5.92726024 55.7961082 27.6599733 -1.30915953 17.590774"></polygon>
        <g id="Artboard" fill="#FFFFFF">
            <path d="M29.1736047,3.3717414 C24.7536047,3.3717414 21.1736047,6.9537414 21.1736047,11.3717414 C21.1736047,14.9067414 23.4656047,17.9047414 26.6436047,18.9617414 C27.0436047,19.0367414 27.1906047,18.7897414 27.1906047,18.5767414 C27.1906047,18.3867414 27.1836047,17.8837414 27.1806047,17.2167414 C24.9546047,17.6997414 24.4856047,16.1437414 24.4856047,16.1437414 C24.1216047,15.2197414 23.5956047,14.9737414 23.5956047,14.9737414 C22.8706047,14.4777414 23.6516047,14.4877414 23.6516047,14.4877414 C24.4546047,14.5437414 24.8766047,15.3117414 24.8766047,15.3117414 C25.5906047,16.5347414 26.7496047,16.1817414 27.2066047,15.9767414 C27.2786047,15.4597414 27.4846047,15.1067414 27.7136047,14.9067414 C25.9366047,14.7067414 24.0696047,14.0187414 24.0696047,10.9537414 C24.0696047,10.0807414 24.3796047,9.3667414 24.8926047,8.8067414 C24.8026047,8.6047414 24.5326047,7.7917414 24.9626047,6.6897414 C24.9626047,6.6897414 25.6326047,6.4747414 27.1626047,7.5097414 C27.8026047,7.3317414 28.4826047,7.2437414 29.1626047,7.2397414 C29.8426047,7.2437414 30.5226047,7.3317414 31.1626047,7.5097414 C32.6826047,6.4747414 33.3526047,6.6897414 33.3526047,6.6897414 C33.7826047,7.7917414 33.5126047,8.6047414 33.4326047,8.8067414 C33.9426047,9.3667414 34.2526047,10.0807414 34.2526047,10.9537414 C34.2526047,14.0267414 32.3826047,14.7037414 30.6026047,14.9007414 C30.8826047,15.1407414 31.1426047,15.6307414 31.1426047,16.3807414 C31.1426047,17.4507414 31.1326047,18.3107414 31.1326047,18.5707414 C31.1326047,18.7807414 31.2726047,19.0307414 31.6826047,18.9507414 C34.8836047,17.9017414 37.1736047,14.9017414 37.1736047,11.3717414 C37.1736047,6.9537414 33.5916047,3.3717414 29.1736047,3.3717414" id="Shape" transform="translate(29.173605, 11.173605) rotate(45.000000) translate(-29.173605, -11.173605) "></path>
        </g>
    </g>
</svg>