<?xml version="1.0" encoding="UTF-8"?>
<svg width="120px" height="120px" viewBox="0 0 120 120" version="1.1" xmlns="http://www.w3.org/2000/svg" xmlns:xlink="http://www.w3.org/1999/xlink">
    <!-- Generator: Sketch 41.1 (35376) - http://www.bohemiancoding.com/sketch -->
    <title>GMD</title>
    <desc>Created with Sketch.</desc>
    <defs>
        <circle id="path-1" cx="60" cy="60" r="60"></circle>
        <linearGradient x1="0%" y1="50%" x2="100%" y2="50%" id="linearGradient-3">
            <stop stop-color="#EE3AFF" offset="0%"></stop>
            <stop stop-color="#388FFF" offset="100%"></stop>
        </linearGradient>
        <path d="M10.3476562,53.9375 L15.1962891,53.9375 L16.4707031,47.9169922 L17.9794922,47.9169922 L16.7050781,53.9375 L23.1357422,53.9375 L24.3955078,47.9169922 L25.9189453,47.9169922 L24.6445312,53.9375 L27.6621094,53.9375 L27.6621094,55.4609375 L24.3515625,55.4609375 L23.1650391,61.1738281 L27.6621094,61.1738281 L27.6621094,62.6972656 L22.8574219,62.6972656 L21.6123047,68.6884766 L20.0742188,68.6884766 L21.3486328,62.6972656 L14.859375,62.6972656 L13.6435547,68.6884766 L12.1054688,68.6884766 L13.3652344,62.6972656 L10.3476562,62.6972656 L10.3476562,61.1738281 L13.6875,61.1738281 L14.8740234,55.4609375 L10.3476562,55.4609375 L10.3476562,53.9375 Z M16.3828125,55.4609375 L15.1816406,61.1445312 L21.65625,61.1445312 L22.8427734,55.4609375 L16.3828125,55.4609375 Z M50.3378906,59.5185547 L58.9072266,59.5185547 L58.9072266,60.2216797 C57.9599562,60.2216797 57.3178728,60.3168936 56.980957,60.5073242 C56.6440413,60.6977549 56.4218755,61.0151345 56.3144531,61.4594727 C56.2070307,61.9038108 56.1533203,62.9804602 56.1533203,64.6894531 L56.1533203,66.7988281 C55.9189441,66.7597654 55.7089853,66.7402344 55.5234375,66.7402344 C54.7714806,66.7402344 53.7851624,66.9697243 52.5644531,67.4287109 C50.9042886,68.0537141 49.366218,68.3662109 47.9501953,68.3662109 C45.1083842,68.3662109 42.7451266,67.4311617 40.8603516,65.5610352 C38.9755765,63.6909086 38.0332031,61.3203269 38.0332031,58.4492188 C38.0332031,55.6074077 38.9316316,53.1171982 40.7285156,50.9785156 C42.5253996,48.8398331 44.9667814,47.7705078 48.0527344,47.7705078 C50.7089977,47.7705078 52.9062413,48.7470605 54.6445312,50.7001953 C54.9667985,50.0165981 55.1718746,49.2793008 55.2597656,48.4882812 L55.9628906,48.4882812 L55.9628906,55.1240234 L55.2597656,55.1240234 C54.9765611,53.0829976 54.202643,51.4668028 52.9379883,50.2753906 C51.6733335,49.0839784 50.1377043,48.4882812 48.3310547,48.4882812 C46.465811,48.4882812 44.8398507,49.1816337 43.453125,50.5683594 C42.0663993,51.9550851 41.3730469,54.4159979 41.3730469,57.9511719 C41.3730469,61.4765801 42.0419855,63.9741137 43.3798828,65.4438477 C44.7177801,66.9135816 46.3779198,67.6484375 48.3603516,67.6484375 C49.3759816,67.6484375 50.298824,67.44092 51.1289062,67.0258789 C51.9589885,66.6108378 52.5253891,66.1054717 52.828125,65.5097656 C53.1308609,64.9140595 53.2822266,64.1621139 53.2822266,63.2539062 C53.2822266,62.1894478 53.2114265,61.4790057 53.0698242,61.1225586 C52.9282219,60.7661115 52.710939,60.5268561 52.4179688,60.4047852 C52.1249985,60.2827142 51.5878945,60.2216797 50.8066406,60.2216797 L50.3378906,60.2216797 L50.3378906,59.5185547 Z M73.5410156,64.5722656 L80.7773437,48.1367188 L86.8710937,48.1367188 L86.8710937,48.8105469 L86.1386719,48.8105469 C85.1621045,48.8105469 84.5224625,48.8911125 84.2197266,49.0522461 C83.9169907,49.2133797 83.714356,49.5136697 83.6118164,49.953125 C83.5092768,50.3925803 83.4580078,51.4374917 83.4580078,53.0878906 L83.4580078,62.8291016 C83.4580078,64.3916094 83.4970699,65.4145484 83.5751953,65.8979492 C83.6533207,66.3813501 83.8510726,66.7402332 84.168457,66.9746094 C84.4858414,67.2089855 85.0937455,67.3261719 85.9921875,67.3261719 L86.8710937,67.3261719 L86.8710937,68 L77.3789062,68 L77.3789062,67.3261719 L78.0820312,67.3261719 C78.9218792,67.3261719 79.5053695,67.2187511 79.8325195,67.0039062 C80.1596696,66.7890614 80.3696284,66.4545921 80.4624023,66.0004883 C80.5551762,65.5463844 80.6015625,64.4892661 80.6015625,62.8291016 L80.6015625,50.1875 L72.7353516,68 L72.046875,68 L64.1220703,50.1875 L64.1220703,61.8183594 C64.1220703,63.4101642 64.1708979,64.4941377 64.2685547,65.0703125 C64.3662114,65.6464873 64.6689428,66.1518533 65.1767578,66.5864258 C65.6845729,67.0209983 66.3974563,67.2675778 67.3154297,67.3261719 L67.3154297,68 L60.2109375,68 L60.2109375,67.3261719 C61.0605511,67.2773435 61.7514622,67.0454122 62.2836914,66.6303711 C62.8159206,66.21533 63.1406244,65.7050812 63.2578125,65.0996094 C63.3750006,64.4941376 63.4335937,63.371102 63.4335937,61.7304688 L63.4335937,53.0878906 C63.4335937,51.5058515 63.3872075,50.4853539 63.2944336,50.0263672 C63.2016597,49.5673805 63.0063491,49.2500009 62.7084961,49.0742188 C62.410643,48.8984366 61.7587941,48.8105469 60.7529297,48.8105469 L60.2109375,48.8105469 L60.2109375,48.1367188 L66.2607422,48.1367188 L73.5410156,64.5722656 Z M88.1455078,48.2978516 L91.4121094,48.1367188 C94.1367324,47.9999993 95.9726515,47.9316406 96.9199219,47.9316406 C99.8691554,47.9316406 102.168937,48.3808549 103.819336,49.2792969 C105.469735,50.1777389 106.69775,51.3959884 107.503418,52.934082 C108.309086,54.4721757 108.711914,56.2470603 108.711914,58.2587891 C108.711914,59.7138745 108.49219,61.0444276 108.052734,62.2504883 C107.613279,63.456549 107.010258,64.4575156 106.243652,65.253418 C105.477047,66.0493204 104.588384,66.6547831 103.577637,67.0698242 C102.566889,67.4848654 101.607426,67.7436518 100.699219,67.8461914 C99.7910111,67.948731 98.511727,68 96.8613281,68 L88.0576172,68 L88.0576172,67.3261719 L88.8779297,67.3261719 C89.7275433,67.3261719 90.3159163,67.2187511 90.6430664,67.0039062 C90.9702165,66.7890614 91.1801753,66.4545921 91.2729492,66.0004883 C91.3657231,65.5463844 91.4121094,64.4892661 91.4121094,62.8291016 L91.4121094,53.2490234 C91.4121094,51.6669843 91.3657231,50.6440453 91.2729492,50.1801758 C91.1801753,49.7163063 90.9848648,49.3989266 90.6870117,49.2280273 C90.3891587,49.0571281 89.7373097,48.9716797 88.7314453,48.9716797 L88.1455078,48.9716797 L88.1455078,48.2978516 Z M94.2685547,48.7080078 L94.2685547,61.9794922 C94.2685547,63.9423926 94.3051754,65.2070284 94.378418,65.7734375 C94.4516605,66.3398466 94.6713849,66.7377918 95.0375977,66.9672852 C95.4038104,67.1967785 96.1777285,67.3115234 97.359375,67.3115234 C99.0878993,67.3115234 100.508783,67.0747094 101.62207,66.6010742 C102.735357,66.127439 103.665524,65.1948312 104.412598,63.8032227 C105.159672,62.4116141 105.533203,60.6367295 105.533203,58.4785156 C105.533203,56.7988197 105.31592,55.2998113 104.881348,53.9814453 C104.446775,52.6630793 103.824223,51.5913127 103.013672,50.7661133 C102.203121,49.9409138 101.304692,49.379396 100.318359,49.081543 C99.3320263,48.7836899 98.0673905,48.6347656 96.5244141,48.6347656 C95.7822229,48.6347656 95.0302772,48.6591794 94.2685547,48.7080078 Z" id="path-4"></path>
    </defs>
    <g id="Page-1" stroke="none" stroke-width="1" fill="none" fill-rule="evenodd">
        <g id="GMD">
            <g id="Group">
                <mask id="mask-2" fill="white">
                    <use xlink:href="#path-1"></use>
                </mask>
                <g id="Oval"></g>
                <rect id="Rectangle" fill="url(#linearGradient-3)" mask="url(#mask-2)" x="0" y="0" width="120" height="32"></rect>
                <rect id="Rectangle" fill="url(#linearGradient-3)" mask="url(#mask-2)" transform="translate(60.000000, 104.000000) scale(-1, 1) translate(-60.000000, -104.000000) " x="0" y="88" width="120" height="32"></rect>
            </g>
            <mask id="mask-5" fill="white">
                <use xlink:href="#path-4"></use>
            </mask>
            <g id="#-GMD"></g>
            <rect id="Rectangle" fill="url(#linearGradient-3)" mask="url(#mask-5)" transform="translate(60.000000, 58.000000) scale(1, 1) translate(-60.000000, -58.000000) " x="0" y="42" width="120" height="32"></rect>
        </g>
    </g>
</svg>